{
  "asset": {
    "version": "2.0",
    "generator": "CityEvolution3D-Generator"
  },
  "scene": 0,
  "scenes": [
    {
      "name": "City_2024",
      "nodes": [
        0,
        1,
        2,
        3,
        4,
        5
      ]
    }
  ],
  "nodes": [
    {
      "name": "金融中心大厦",
      "mesh": 0,
      "translation": [
        -8,
        0,
        -8
      ]
    },
    {
      "name": "环球商业广场",
      "mesh": 1,
      "translation": [
        8,
        0,
        -8
      ]
    },
    {
      "name": "科技研发中心",
      "mesh": 2,
      "translation": [
        -8,
        0,
        8
      ]
    },
    {
      "name": "国际公寓",
      "mesh": 3,
      "translation": [
        8,
        0,
        8
      ]
    },
    {
      "name": "中央车站",
      "mesh": 4,
      "translation": [
        0,
        0,
        0
      ]
    },
    {
      "name": "绿色生态塔",
      "mesh": 5,
      "translation": [
        0,
        0,
        15
      ]
    }
  ],
  "meshes": [
    {
      "primitives": [
        {
          "attributes": {
            "POSITION": 0
          },
          "indices": 1,
          "material": 0
        }
      ]
    },
    {
      "primitives": [
        {
          "attributes": {
            "POSITION": 2
          },
          "indices": 3,
          "material": 1
        }
      ]
    },
    {
      "primitives": [
        {
          "attributes": {
            "POSITION": 4
          },
          "indices": 5,
          "material": 2
        }
      ]
    },
    {
      "primitives": [
        {
          "attributes": {
            "POSITION": 6
          },
          "indices": 7,
          "material": 3
        }
      ]
    },
    {
      "primitives": [
        {
          "attributes": {
            "POSITION": 8
          },
          "indices": 9,
          "material": 4
        }
      ]
    },
    {
      "primitives": [
        {
          "attributes": {
            "POSITION": 10
          },
          "indices": 11,
          "material": 5
        }
      ]
    }
  ],
  "materials": [
    {
      "name": "Mat_0",
      "pbrMetallicRoughness": {
        "baseColorFactor": [
          0.11764705882352941,
          0.5647058823529412,
          1,
          1
        ],
        "metallicFactor": 0.1,
        "roughnessFactor": 0.8
      }
    },
    {
      "name": "Mat_1",
      "pbrMetallicRoughness": {
        "baseColorFactor": [
          1,
          0.38823529411764707,
          0.2784313725490196,
          1
        ],
        "metallicFactor": 0.1,
        "roughnessFactor": 0.8
      }
    },
    {
      "name": "Mat_2",
      "pbrMetallicRoughness": {
        "baseColorFactor": [
          0.19607843137254902,
          0.803921568627451,
          0.19607843137254902,
          1
        ],
        "metallicFactor": 0.1,
        "roughnessFactor": 0.8
      }
    },
    {
      "name": "Mat_3",
      "pbrMetallicRoughness": {
        "baseColorFactor": [
          0.8549019607843137,
          0.6470588235294118,
          0.12549019607843137,
          1
        ],
        "metallicFactor": 0.1,
        "roughnessFactor": 0.8
      }
    },
    {
      "name": "Mat_4",
      "pbrMetallicRoughness": {
        "baseColorFactor": [
          0.5764705882352941,
          0.4392156862745098,
          0.8588235294117647,
          1
        ],
        "metallicFactor": 0.1,
        "roughnessFactor": 0.8
      }
    },
    {
      "name": "Mat_5",
      "pbrMetallicRoughness": {
        "baseColorFactor": [
          0,
          0.807843137254902,
          0.8196078431372549,
          1
        ],
        "metallicFactor": 0.1,
        "roughnessFactor": 0.8
      }
    }
  ],
  "accessors": [
    {
      "bufferView": 0,
      "componentType": 5126,
      "count": 8,
      "type": "VEC3",
      "min": [
        -2,
        0,
        -2
      ],
      "max": [
        2,
        45,
        2
      ]
    },
    {
      "bufferView": 1,
      "componentType": 5123,
      "count": 36,
      "type": "SCALAR",
      "min": [
        0
      ],
      "max": [
        7
      ]
    },
    {
      "bufferView": 2,
      "componentType": 5126,
      "count": 8,
      "type": "VEC3",
      "min": [
        -2,
        0,
        -2
      ],
      "max": [
        2,
        35,
        2
      ]
    },
    {
      "bufferView": 3,
      "componentType": 5123,
      "count": 36,
      "type": "SCALAR",
      "min": [
        0
      ],
      "max": [
        7
      ]
    },
    {
      "bufferView": 4,
      "componentType": 5126,
      "count": 8,
      "type": "VEC3",
      "min": [
        -2,
        0,
        -2
      ],
      "max": [
        2,
        28,
        2
      ]
    },
    {
      "bufferView": 5,
      "componentType": 5123,
      "count": 36,
      "type": "SCALAR",
      "min": [
        0
      ],
      "max": [
        7
      ]
    },
    {
      "bufferView": 6,
      "componentType": 5126,
      "count": 8,
      "type": "VEC3",
      "min": [
        -2,
        0,
        -2
      ],
      "max": [
        2,
        30,
        2
      ]
    },
    {
      "bufferView": 7,
      "componentType": 5123,
      "count": 36,
      "type": "SCALAR",
      "min": [
        0
      ],
      "max": [
        7
      ]
    },
    {
      "bufferView": 8,
      "componentType": 5126,
      "count": 8,
      "type": "VEC3",
      "min": [
        -2,
        0,
        -2
      ],
      "max": [
        2,
        22,
        2
      ]
    },
    {
      "bufferView": 9,
      "componentType": 5123,
      "count": 36,
      "type": "SCALAR",
      "min": [
        0
      ],
      "max": [
        7
      ]
    },
    {
      "bufferView": 10,
      "componentType": 5126,
      "count": 8,
      "type": "VEC3",
      "min": [
        -2,
        0,
        -2
      ],
      "max": [
        2,
        40,
        2
      ]
    },
    {
      "bufferView": 11,
      "componentType": 5123,
      "count": 36,
      "type": "SCALAR",
      "min": [
        0
      ],
      "max": [
        7
      ]
    }
  ],
  "bufferViews": [
    {
      "buffer": 0,
      "byteOffset": 0,
      "byteLength": 96,
      "target": 34962
    },
    {
      "buffer": 0,
      "byteOffset": 96,
      "byteLength": 72,
      "target": 34963
    },
    {
      "buffer": 0,
      "byteOffset": 168,
      "byteLength": 96,
      "target": 34962
    },
    {
      "buffer": 0,
      "byteOffset": 264,
      "byteLength": 72,
      "target": 34963
    },
    {
      "buffer": 0,
      "byteOffset": 336,
      "byteLength": 96,
      "target": 34962
    },
    {
      "buffer": 0,
      "byteOffset": 432,
      "byteLength": 72,
      "target": 34963
    },
    {
      "buffer": 0,
      "byteOffset": 504,
      "byteLength": 96,
      "target": 34962
    },
    {
      "buffer": 0,
      "byteOffset": 600,
      "byteLength": 72,
      "target": 34963
    },
    {
      "buffer": 0,
      "byteOffset": 672,
      "byteLength": 96,
      "target": 34962
    },
    {
      "buffer": 0,
      "byteOffset": 768,
      "byteLength": 72,
      "target": 34963
    },
    {
      "buffer": 0,
      "byteOffset": 840,
      "byteLength": 96,
      "target": 34962
    },
    {
      "buffer": 0,
      "byteOffset": 936,
      "byteLength": 72,
      "target": 34963
    }
  ],
  "buffers": [
    {
      "byteLength": 1008,
      "uri": "data:application/octet-stream;base64,"
    }
  ]
}