<svg width="256" height="256" viewBox="0 0 256 256" xmlns="http://www.w3.org/2000/svg">
  <defs>
    <radialGradient id="coralGrad" cx="50%" cy="50%" r="50%">
      <stop offset="0%" style="stop-color:#FF8A65;stop-opacity:1" />
      <stop offset="50%" style="stop-color:#F48FB1;stop-opacity:1" />
      <stop offset="100%" style="stop-color:#CE93D8;stop-opacity:1" />
    </radialGradient>
    <filter id="coralNoise">
      <feTurbulence type="turbulence" baseFrequency="0.06" numOctaves="4" result="noise"/>
      <feColorMatrix type="hueRotate" values="0"/>
    </filter>
  </defs>
  <rect width="256" height="256" fill="url(#coralGrad)"/>
  <rect width="256" height="256" filter="url(#coralNoise)" opacity="0.25"/>
  <g fill="#FF6B6B" opacity="0.3">
    <circle cx="40" cy="40" r="8"/>
    <circle cx="128" cy="30" r="12"/>
    <circle cx="210" cy="50" r="6"/>
    <circle cx="60" cy="128" r="10"/>
    <circle cx="180" cy="110" r="9"/>
    <circle cx="45" cy="200" r="7"/>
    <circle cx="130" cy="210" r="11"/>
    <circle cx="215" cy="180" r="8"/>
  </g>
  <g stroke="#FFB74D" stroke-width="2" fill="none" opacity="0.4">
    <path d="M20,60 Q60,30 100,60 T180,60 T250,60"/>
    <path d="M10,128 Q50,90 90,128 T170,128 T250,128"/>
    <path d="M20,200 Q60,170 100,200 T180,200 T250,200"/>
  </g>
</svg>
