{
  "asset": {
    "version": "2.0",
    "generator": "CityEvolution3D"
  },
  "scene": 0,
  "scenes": [
    {
      "name": "CityScene",
      "nodes": [
        0,
        1,
        2,
        3,
        4,
        5
      ]
    }
  ],
  "nodes": [
    {
      "name": "金融中心大厦",
      "mesh": 0,
      "translation": [
        -8,
        22.5,
        -8
      ]
    },
    {
      "name": "环球商业广场",
      "mesh": 1,
      "translation": [
        8,
        17.5,
        -8
      ]
    },
    {
      "name": "科技研发中心",
      "mesh": 2,
      "translation": [
        -8,
        14,
        8
      ]
    },
    {
      "name": "国际公寓",
      "mesh": 3,
      "translation": [
        8,
        15,
        8
      ]
    },
    {
      "name": "中央车站",
      "mesh": 4,
      "translation": [
        0,
        11,
        0
      ]
    },
    {
      "name": "绿色生态塔",
      "mesh": 5,
      "translation": [
        0,
        20,
        15
      ]
    }
  ],
  "meshes": [
    {
      "name": "金融中心大厦",
      "primitives": [
        {
          "attributes": {
            "POSITION": 0,
            "NORMAL": 1
          },
          "indices": 2,
          "material": 0
        }
      ]
    },
    {
      "name": "环球商业广场",
      "primitives": [
        {
          "attributes": {
            "POSITION": 3,
            "NORMAL": 4
          },
          "indices": 5,
          "material": 1
        }
      ]
    },
    {
      "name": "科技研发中心",
      "primitives": [
        {
          "attributes": {
            "POSITION": 6,
            "NORMAL": 7
          },
          "indices": 8,
          "material": 2
        }
      ]
    },
    {
      "name": "国际公寓",
      "primitives": [
        {
          "attributes": {
            "POSITION": 9,
            "NORMAL": 10
          },
          "indices": 11,
          "material": 3
        }
      ]
    },
    {
      "name": "中央车站",
      "primitives": [
        {
          "attributes": {
            "POSITION": 12,
            "NORMAL": 13
          },
          "indices": 14,
          "material": 4
        }
      ]
    },
    {
      "name": "绿色生态塔",
      "primitives": [
        {
          "attributes": {
            "POSITION": 15,
            "NORMAL": 16
          },
          "indices": 17,
          "material": 5
        }
      ]
    }
  ],
  "materials": [
    {
      "name": "Mat_0",
      "pbrMetallicRoughness": {
        "baseColorFactor": [
          0.11764705882352941,
          0.5647058823529412,
          1,
          1
        ],
        "metallicFactor": 0.3,
        "roughnessFactor": 0.7
      }
    },
    {
      "name": "Mat_1",
      "pbrMetallicRoughness": {
        "baseColorFactor": [
          1,
          0.38823529411764707,
          0.2784313725490196,
          1
        ],
        "metallicFactor": 0.3,
        "roughnessFactor": 0.7
      }
    },
    {
      "name": "Mat_2",
      "pbrMetallicRoughness": {
        "baseColorFactor": [
          0.19607843137254902,
          0.803921568627451,
          0.19607843137254902,
          1
        ],
        "metallicFactor": 0.3,
        "roughnessFactor": 0.7
      }
    },
    {
      "name": "Mat_3",
      "pbrMetallicRoughness": {
        "baseColorFactor": [
          0.8549019607843137,
          0.6470588235294118,
          0.12549019607843137,
          1
        ],
        "metallicFactor": 0.3,
        "roughnessFactor": 0.7
      }
    },
    {
      "name": "Mat_4",
      "pbrMetallicRoughness": {
        "baseColorFactor": [
          0.5764705882352941,
          0.4392156862745098,
          0.8588235294117647,
          1
        ],
        "metallicFactor": 0.3,
        "roughnessFactor": 0.7
      }
    },
    {
      "name": "Mat_5",
      "pbrMetallicRoughness": {
        "baseColorFactor": [
          0,
          0.807843137254902,
          0.8196078431372549,
          1
        ],
        "metallicFactor": 0.3,
        "roughnessFactor": 0.7
      }
    }
  ],
  "accessors": [
    {
      "bufferView": 0,
      "componentType": 5126,
      "count": 24,
      "type": "VEC3",
      "min": [
        -2,
        -22.5,
        -2
      ],
      "max": [
        2,
        22.5,
        2
      ]
    },
    {
      "bufferView": 1,
      "componentType": 5126,
      "count": 24,
      "type": "VEC3"
    },
    {
      "bufferView": 2,
      "componentType": 5123,
      "count": 36,
      "type": "SCALAR",
      "min": [
        0
      ],
      "max": [
        23
      ]
    },
    {
      "bufferView": 3,
      "componentType": 5126,
      "count": 24,
      "type": "VEC3",
      "min": [
        -2,
        -17.5,
        -2
      ],
      "max": [
        2,
        17.5,
        2
      ]
    },
    {
      "bufferView": 4,
      "componentType": 5126,
      "count": 24,
      "type": "VEC3"
    },
    {
      "bufferView": 5,
      "componentType": 5123,
      "count": 36,
      "type": "SCALAR",
      "min": [
        0
      ],
      "max": [
        23
      ]
    },
    {
      "bufferView": 6,
      "componentType": 5126,
      "count": 24,
      "type": "VEC3",
      "min": [
        -2,
        -14,
        -2
      ],
      "max": [
        2,
        14,
        2
      ]
    },
    {
      "bufferView": 7,
      "componentType": 5126,
      "count": 24,
      "type": "VEC3"
    },
    {
      "bufferView": 8,
      "componentType": 5123,
      "count": 36,
      "type": "SCALAR",
      "min": [
        0
      ],
      "max": [
        23
      ]
    },
    {
      "bufferView": 9,
      "componentType": 5126,
      "count": 24,
      "type": "VEC3",
      "min": [
        -2,
        -15,
        -2
      ],
      "max": [
        2,
        15,
        2
      ]
    },
    {
      "bufferView": 10,
      "componentType": 5126,
      "count": 24,
      "type": "VEC3"
    },
    {
      "bufferView": 11,
      "componentType": 5123,
      "count": 36,
      "type": "SCALAR",
      "min": [
        0
      ],
      "max": [
        23
      ]
    },
    {
      "bufferView": 12,
      "componentType": 5126,
      "count": 24,
      "type": "VEC3",
      "min": [
        -2,
        -11,
        -2
      ],
      "max": [
        2,
        11,
        2
      ]
    },
    {
      "bufferView": 13,
      "componentType": 5126,
      "count": 24,
      "type": "VEC3"
    },
    {
      "bufferView": 14,
      "componentType": 5123,
      "count": 36,
      "type": "SCALAR",
      "min": [
        0
      ],
      "max": [
        23
      ]
    },
    {
      "bufferView": 15,
      "componentType": 5126,
      "count": 24,
      "type": "VEC3",
      "min": [
        -2,
        -20,
        -2
      ],
      "max": [
        2,
        20,
        2
      ]
    },
    {
      "bufferView": 16,
      "componentType": 5126,
      "count": 24,
      "type": "VEC3"
    },
    {
      "bufferView": 17,
      "componentType": 5123,
      "count": 36,
      "type": "SCALAR",
      "min": [
        0
      ],
      "max": [
        23
      ]
    }
  ],
  "bufferViews": [
    {
      "buffer": 0,
      "byteOffset": 0,
      "byteLength": 288,
      "target": 34962
    },
    {
      "buffer": 0,
      "byteOffset": 288,
      "byteLength": 288,
      "target": 34962
    },
    {
      "buffer": 0,
      "byteOffset": 576,
      "byteLength": 72,
      "target": 34963
    },
    {
      "buffer": 0,
      "byteOffset": 648,
      "byteLength": 288,
      "target": 34962
    },
    {
      "buffer": 0,
      "byteOffset": 936,
      "byteLength": 288,
      "target": 34962
    },
    {
      "buffer": 0,
      "byteOffset": 1224,
      "byteLength": 72,
      "target": 34963
    },
    {
      "buffer": 0,
      "byteOffset": 1296,
      "byteLength": 288,
      "target": 34962
    },
    {
      "buffer": 0,
      "byteOffset": 1584,
      "byteLength": 288,
      "target": 34962
    },
    {
      "buffer": 0,
      "byteOffset": 1872,
      "byteLength": 72,
      "target": 34963
    },
    {
      "buffer": 0,
      "byteOffset": 1944,
      "byteLength": 288,
      "target": 34962
    },
    {
      "buffer": 0,
      "byteOffset": 2232,
      "byteLength": 288,
      "target": 34962
    },
    {
      "buffer": 0,
      "byteOffset": 2520,
      "byteLength": 72,
      "target": 34963
    },
    {
      "buffer": 0,
      "byteOffset": 2592,
      "byteLength": 288,
      "target": 34962
    },
    {
      "buffer": 0,
      "byteOffset": 2880,
      "byteLength": 288,
      "target": 34962
    },
    {
      "buffer": 0,
      "byteOffset": 3168,
      "byteLength": 72,
      "target": 34963
    },
    {
      "buffer": 0,
      "byteOffset": 3240,
      "byteLength": 288,
      "target": 34962
    },
    {
      "buffer": 0,
      "byteOffset": 3528,
      "byteLength": 288,
      "target": 34962
    },
    {
      "buffer": 0,
      "byteOffset": 3816,
      "byteLength": 72,
      "target": 34963
    }
  ],
  "buffers": [
    {
      "byteLength": 3888,
      "uri": "data:application/octet-stream;base64,"
    }
  ]
}